{"accessors":[{"bufferView":0,"componentType":5126,"count":5712,"max":[42.0,2.0,34.0],"min":[0.0,0.0,0.0],"type":"VEC3"},{"bufferView":1,"componentType":5126,"count":5712,"type":"VEC2"},{"bufferView":2,"componentType":5126,"count":5712,"type":"VEC3"},{"bufferView":3,"componentType":5123,"count":456,"type":"SCALAR"},{"bufferView":4,"componentType":5126,"count":4700,"max":[42.0,6.0,34.0],"min":[0.0,0.0,0.0],"type":"VEC3"},{"bufferView":5,"componentType":5126,"count":4700,"type":"VEC2"},{"bufferView":6,"componentType":5126,"count":4700,"type":"VEC3"},{"bufferView":7,"componentType":5123,"count":4332,"type":"SCALAR"},{"bufferView":8,"componentType":5126,"count":3680,"max":[42.0,6.0,34.0],"min":[0.0,2.0,0.0],"type":"VEC3"},{"bufferView":9,"componentType":5126,"count":3680,"type":"VEC2"},{"bufferView":10,"componentType":5126,"count":3680,"type":"VEC3"},{"bufferView":11,"componentType":5123,"count":2808,"type":"SCALAR"}],"asset":{"generator":"Total Editor 3","version":"2.0"},"bufferViews":[{"buffer":0,"byteLength":68544,"byteOffset":0,"target":34962},{"buffer":0,"byteLength":45696,"byteOffset":68544,"target":34962},{"buffer":0,"byteLength":68544,"byteOffset":114240,"target":34962},{"buffer":0,"byteLength":912,"byteOffset":182784,"target":34963},{"buffer":0,"byteLength":56400,"byteOffset":183696,"target":34962},{"buffer":0,"byteLength":37600,"byteOffset":240096,"target":34962},{"buffer":0,"byteLength":56400,"byteOffset":277700,"target":34962},{"buffer":0,"byteLength":8664,"byteOffset":334100,"target":34963},{"buffer":0,"byteLength":44160,"byteOffset":342772,"target":34962},{"buffer":0,"byteLength":29440,"byteOffset":386936,"target":34962},{"buffer":0,"byteLength":44160,"byteOffset":416376,"target":34962},{"buffer":0,"byteLength":5616,"byteOffset":460536,"target":34963}],"buffers":[{"byteLength":466152,"uri":"data:application/octet-stream;base64,"}],"images":[{"uri":"../../../../Programs/Total_Editor_3.2.1_Win64/release/assets/textures/tiles/brickwall.png"},{"uri":"../../../../Programs/Total_Editor_3.2.1_Win64/release/assets/textures/tiles/darkfloor.png"},{"uri":"../../../../Programs/Total_Editor_3.2.1_Win64/release/assets/textures/tiles/concrete.png"}],"materials":[{"name":"../../../../Programs/Total_Editor_3.2.1_Win64/release/assets/textures/tiles/brickwall.png","pbrMetallicRoughness":{"baseColorTexture":{"index":0,"texCoord":0},"metallicFactor":0.0,"roughnessFactor":1.0}},{"name":"../../../../Programs/Total_Editor_3.2.1_Win64/release/assets/textures/tiles/darkfloor.png","pbrMetallicRoughness":{"baseColorTexture":{"index":1,"texCoord":0},"metallicFactor":0.0,"roughnessFactor":1.0}},{"name":"../../../../Programs/Total_Editor_3.2.1_Win64/release/assets/textures/tiles/concrete.png","pbrMetallicRoughness":{"baseColorTexture":{"index":2,"texCoord":0},"metallicFactor":0.0,"roughnessFactor":1.0}}],"meshes":[{"primitives":[{"attributes":{"NORMAL":2,"POSITION":0,"TEXCOORD_0":1},"indices":3,"material":0,"mode":4},{"attributes":{"NORMAL":6,"POSITION":4,"TEXCOORD_0":5},"indices":7,"material":1,"mode":4},{"attributes":{"NORMAL":10,"POSITION":8,"TEXCOORD_0":9},"indices":11,"material":2,"mode":4}]}],"nodes":[{"mesh":0,"name":"map"}],"samplers":[{"magFilter":9728,"minFilter":9984,"wrapS":10497,"wrapT":10497}],"scene":0,"scenes":[{"nodes":[0]}],"textures":[{"sampler":0,"source":0},{"sampler":0,"source":1},{"sampler":0,"source":2}]}