{
  "accessors": [
    {
      "bufferView": 2,
      "componentType": 5126,
      "count": 452,
      "max": [
        1.1130621433258057,
        1.6205236911773682,
        1.3095769882202148
      ],
      "min": [
        -1.1632091999053955,
        -0.8348428010940552,
        -1.1143147945404053
      ],
      "type": "VEC3"
    },
    {
      "bufferView": 2,
      "byteOffset": 5424,
      "componentType": 5126,
      "count": 452,
      "max": [
        0.9724162220954895,
        0.9983067512512207,
        0.9976497292518616
      ],
      "min": [
        -0.9685165882110596,
        -0.9972696900367737,
        -0.9984616041183472
      ],
      "type": "VEC3"
    },
    {
      "bufferView": 1,
      "componentType": 5126,
      "count": 452,
      "max": [
        0.9842942357063293,
        0.9940311312675476
      ],
      "min": [
        0.011978834867477417,
        0.007812201976776123
      ],
      "type": "VEC2"
    },
    {
      "bufferView": 0,
      "componentType": 5125,
      "count": 588,
      "type": "SCALAR"
    },
    {
      "bufferView": 3,
      "componentType": 5126,
      "count": 113,
      "max": [
        3.75
      ],
      "min": [
        0.0416666679084301
      ],
      "type": "SCALAR"
    },
    {
      "bufferView": 4,
      "componentType": 5126,
      "count": 113,
      "max": [
        0.0651511549949646,
        1.1549065113067627,
        0.1425757259130478
      ],
      "min": [
        0.0651511549949646,
        0.0,
        0.1425757259130478
      ],
      "type": "VEC3"
    }
  ],
  "animations": [
    {
      "channels": [
        {
          "sampler": 0,
          "target": {
            "node": 5,
            "path": "translation"
          }
        }
      ],
      "name": "Take 001",
      "samplers": [
        {
          "input": 4,
          "interpolation": "LINEAR",
          "output": 5
        }
      ]
    }
  ],
  "asset": {
    "extras": {
      "author": "Yuliya (https://sketchfab.com/rendergirl)",
      "license": "CC-BY-4.0 (http://creativecommons.org/licenses/by/4.0/)",
      "source": "https://sketchfab.com/3d-models/crystal-low-poly-8a8ad77ec18f4ff09bfb395a3540f93a",
      "title": "Crystal Low poly"
    },
    "generator": "Sketchfab-12.68.0",
    "version": "2.0"
  },
  "bufferViews": [
    {
      "buffer": 0,
      "byteLength": 2352,
      "name": "floatBufferViews",
      "target": 34963
    },
    {
      "buffer": 0,
      "byteLength": 3616,
      "byteOffset": 2352,
      "byteStride": 8,
      "name": "floatBufferViews",
      "target": 34962
    },
    {
      "buffer": 0,
      "byteLength": 10848,
      "byteOffset": 5968,
      "byteStride": 12,
      "name": "floatBufferViews",
      "target": 34962
    },
    {
      "buffer": 0,
      "byteLength": 452,
      "byteOffset": 16816,
      "name": "floatBufferViews"
    },
    {
      "buffer": 0,
      "byteLength": 1356,
      "byteOffset": 17268,
      "byteStride": 12,
      "name": "floatBufferViews"
    }
  ],
  "buffers": [
    {
      "byteLength": 18624,
      "uri": "scene.bin"
    }
  ],
  "extensionsUsed": [
    "KHR_materials_unlit"
  ],
  "images": [
    {
      "uri": "textures/lambert37_baseColor.jpeg"
    }
  ],
  "materials": [
    {
      "emissiveFactor": [
        0.9322068749404537,
        0.9322068749404537,
        0.9322068749404537
      ],
      "emissiveTexture": {
        "index": 0
      },
      "extensions": {
        "KHR_materials_unlit": {}
      },
      "name": "lambert37",
      "pbrMetallicRoughness": {
        "baseColorFactor": [
          0.6176109313964844,
          0.6176109313964844,
          0.6176109313964844,
          1.0
        ],
        "baseColorTexture": {
          "index": 0
        },
        "metallicFactor": 0.0
      }
    }
  ],
  "meshes": [
    {
      "name": "pCube239_lambert37_0",
      "primitives": [
        {
          "attributes": {
            "NORMAL": 1,
            "POSITION": 0,
            "TEXCOORD_0": 2
          },
          "indices": 3,
          "material": 0,
          "mode": 4
        }
      ]
    }
  ],
  "nodes": [
    {
      "children": [
        1
      ],
      "matrix": [
        0.3929007947444916,
        0.0,
        0.0,
        0.0,
        0.0,
        8.724150174377145e-17,
        -0.3929007947444916,
        0.0,
        0.0,
        0.3929007947444916,
        8.724150174377145e-17,
        0.0,
        0.0,
        0.0,
        0.0,
        1.0
      ],
      "name": "Sketchfab_model"
    },
    {
      "children": [
        2
      ],
      "matrix": [
        1.0,
        0.0,
        0.0,
        0.0,
        0.0,
        0.0,
        1.0,
        0.0,
        0.0,
        -1.0,
        0.0,
        0.0,
        0.0,
        0.0,
        0.0,
        1.0
      ],
      "name": "060984f5a6c64a29a7a4682ae8e5d72e.fbx"
    },
    {
      "children": [
        3
      ],
      "name": "Object_2"
    },
    {
      "children": [
        4
      ],
      "name": "RootNode"
    },
    {
      "children": [
        5
      ],
      "name": "group4"
    },
    {
      "children": [
        6
      ],
      "name": "pCube239",
      "rotation": [
        -8.611517291704984e-17,
        -0.7775654196739197,
        -8.611517291704984e-17,
        0.6288020014762878
      ],
      "translation": [
        0.0651511549949646,
        2.008997171287774e-06,
        0.1425757259130478
      ]
    },
    {
      "mesh": 0,
      "name": "pCube239_lambert37_0"
    }
  ],
  "samplers": [
    {
      "magFilter": 9729,
      "minFilter": 9987,
      "wrapS": 10497,
      "wrapT": 10497
    }
  ],
  "scene": 0,
  "scenes": [
    {
      "name": "Sketchfab_Scene",
      "nodes": [
        0
      ]
    }
  ],
  "textures": [
    {
      "sampler": 0,
      "source": 0
    }
  ]
}
